<?xml version="1.0" standalone="no"?>
<!DOCTYPE svg PUBLIC "-//W3C//DTD SVG 20010904//EN"
 "http://www.w3.org/TR/2001/REC-SVG-20010904/DTD/svg10.dtd">
<svg version="1.0" xmlns="http://www.w3.org/2000/svg"
 width="479.000000pt" height="479.000000pt" viewBox="0 0 479.000000 479.000000"
 preserveAspectRatio="xMidYMid meet">
<metadata>
Created by potrace 1.11, written by Peter Selinger 2001-2013
</metadata>
<g transform="translate(0.000000,479.000000) scale(0.100000,-0.100000)"
fill="#000000" stroke="none">
<path d="M988 3023 c-103 -21 -210 -75 -297 -150 -11 -9 -17 -21 -14 -26 3 -6
1 -7 -5 -3 -12 7 -72 -68 -115 -144 -44 -77 -70 -185 -71 -285 0 -107 8 -170
31 -222 9 -21 18 -43 19 -50 4 -22 75 -133 85 -133 6 0 8 -4 5 -9 -7 -11 29
-43 38 -34 4 5 6 3 4 -3 -4 -14 40 -55 107 -98 205 -134 467 -137 679 -9 62
38 175 146 201 191 41 75 74 153 85 205 7 31 16 57 20 57 7 0 16 -30 26 -85 5
-25 18 -55 56 -128 35 -69 46 -84 113 -151 201 -201 520 -241 766 -96 63 37
179 137 179 154 0 4 6 14 13 21 26 30 33 42 60 95 14 31 34 86 44 123 17 63
31 86 34 52 1 -8 2 -18 4 -22 1 -5 5 -21 9 -38 4 -16 12 -41 18 -55 7 -14 12
-27 13 -30 7 -21 24 -52 52 -96 35 -57 151 -179 160 -170 3 3 11 -1 17 -8 13
-17 124 -74 152 -79 10 -1 24 -5 29 -9 31 -19 196 -28 291 -15 102 14 239 85
325 169 53 52 106 118 95 118 -3 0 2 9 12 20 9 12 15 22 12 24 -3 1 2 10 11
19 24 23 61 171 64 254 5 144 -41 291 -130 412 -39 52 -165 162 -165 144 0 -4
-4 -3 -8 2 -20 29 -134 78 -213 91 -50 9 -191 10 -230 1 -69 -14 -149 -41
-149 -48 0 -5 -3 -8 -7 -7 -14 5 -117 -60 -158 -99 -51 -48 -115 -127 -115
-142 0 -6 -4 -11 -9 -11 -8 0 -30 -48 -27 -60 1 -3 -6 -17 -15 -31 -9 -13 -22
-50 -29 -82 -12 -51 -29 -76 -31 -44 -4 75 -83 254 -125 284 -10 7 -14 13 -8
13 14 0 -96 99 -152 135 -291 190 -683 106 -879 -187 -19 -29 -48 -89 -64
-133 -30 -84 -31 -86 -31 -110 0 -36 -18 -10 -30 43 -7 31 -17 63 -22 70 -6 6
-8 12 -4 12 3 0 -4 19 -16 43 -89 173 -230 291 -413 344 -70 20 -217 23 -297
6z"/>
</g>
</svg>
